# xmcd
#
# Track frame offsets: 
#        150
#        14606
#        24669
#        33648
#        49237
#        63793
#        73649
#        87405
#        101807
#        114798
#        127844
#        143280
#        161419
#        170884
#        183190
#        195955
#        207225
#        222341
#        230286
#
# Disc length: 3211 seconds
#
# Revision: 0
# Processed by: cddbd v1.5.2PL0 Copyright (c) Steve Scherf et al.
# Submitted via: ExactAudioCopy v0.95b4
#
DISCID=000c8913
DTITLE=The Moody Blues - Early Blues
DYEAR=1985
DGENRE=
TTITLE0=Go Now
TTITLE1=Steal Your Heart Away
TTITLE2=Lose Your Money
TTITLE3=I Don't Mind
TTITLE4=Let Me Go
TTITLE5=I'll Go Crazy
TTITLE6=Time Is On My Side
TTITLE7=It's Easy Child
TTITLE8=Something You've Got
TTITLE9=I Had a Dream
TTITLE10=From the Bottom of My Heart
TTITLE11=Can't Nobody Love You
TTITLE12=Stop
TTITLE13=Come Back (Don't Want to Go On Without You)
TTITLE14=Bye Bye Bird
TTITLE15=Thank You Baby
TTITLE16=It Ain't Necessarily So
TTITLE17=True Story
TTITLE18=And My Baby is Gone
EXTD=
EXTT0=
EXTT1=
EXTT2=
EXTT3=
EXTT4=
EXTT5=
EXTT6=
EXTT7=
EXTT8=
EXTT9=
EXTT10=
EXTT11=
EXTT12=
EXTT13=
EXTT14=
EXTT15=
EXTT16=
EXTT17=
EXTT18=
PLAYORDER=
